<?xml version="1.0" encoding="UTF-8"?>
<svg width="124px" height="86px" viewBox="0 0 124 86" version="1.1" xmlns="http://www.w3.org/2000/svg" xmlns:xlink="http://www.w3.org/1999/xlink">
    <!-- Generator: Sketch 50.2 (55047) - http://www.bohemiancoding.com/sketch -->
    <title>round-window</title>
    <desc>Created with Sketch.</desc>
    <defs></defs>
    <g id="Symbols" stroke="none" stroke-width="1" fill="none" fill-rule="evenodd">
        <g id="imgs-/-round-window" fill-rule="nonzero">
            <path d="M101.199219,52.2851562 C101.199219,49.0038898 101.597652,46.3906347 102.394531,44.4453125 C103.19141,42.4999903 104.65038,40.5839938 106.771484,38.6972656 C108.892589,36.8105374 110.304684,35.2753965 111.007812,34.0917969 C111.710941,32.9081972 112.0625,31.6601628 112.0625,30.3476562 C112.0625,26.3866989 110.234393,24.40625 106.578125,24.40625 C104.843741,24.40625 103.455083,24.9394478 102.412109,26.0058594 C101.369135,27.072271 100.824219,28.5429594 100.777344,30.4179688 L90.5820312,30.4179688 C90.6289065,25.9413839 92.0761576,22.4375127 94.9238281,19.90625 C97.7714986,17.3749873 101.656225,16.109375 106.578125,16.109375 C111.5469,16.109375 115.40233,17.3105349 118.144531,19.7128906 C120.886732,22.1152464 122.257812,25.5077906 122.257812,29.890625 C122.257812,31.8828225 121.812504,33.763663 120.921875,35.5332031 C120.031246,37.3027432 118.472667,39.2656142 116.246094,41.421875 L113.398438,44.1289062 C111.617179,45.8398523 110.597658,47.8437385 110.339844,50.140625 L110.199219,52.2851562 L101.199219,52.2851562 Z M100.179688,63.078125 C100.179688,61.5078046 100.712885,60.2128957 101.779297,59.1933594 C102.845708,58.173823 104.210929,57.6640625 105.875,57.6640625 C107.539071,57.6640625 108.904292,58.173823 109.970703,59.1933594 C111.037115,60.2128957 111.570312,61.5078046 111.570312,63.078125 C111.570312,64.6250077 111.048833,65.9023387 110.005859,66.9101562 C108.962885,67.9179738 107.585946,68.421875 105.875,68.421875 C104.164054,68.421875 102.787115,67.9179738 101.744141,66.9101562 C100.701167,65.9023387 100.179688,64.6250077 100.179688,63.078125 Z" id="?" fill="#EAEAEA"></path>
            <circle id="Oval-4" fill="#FFFFFF" cx="33.5773437" cy="40.9874158" r="31.5"></circle>
            <path d="M33.5773438,73.9874158 C15.351947,73.9874158 0.57734375,59.2128125 0.57734375,40.9874158 C0.57734375,22.7620191 15.351947,7.9874158 33.5773438,7.9874158 C51.8027405,7.9874158 66.5773438,22.7620191 66.5773438,40.9874158 C66.5773438,59.2128125 51.8027405,73.9874158 33.5773438,73.9874158 Z M33.5773438,70.9874158 C50.1458862,70.9874158 63.5773438,57.5559583 63.5773438,40.9874158 C63.5773438,24.4188733 50.1458862,10.9874158 33.5773438,10.9874158 C17.0088013,10.9874158 3.57734375,24.4188733 3.57734375,40.9874158 C3.57734375,57.5559583 17.0088013,70.9874158 33.5773438,70.9874158 Z" id="Oval-4" fill="#24B1EB"></path>
            <circle id="Mask" fill="#71D0F4" cx="33.5773438" cy="40.751505" r="23.2070887"></circle>
            <path d="M33.5773437,63.9585937 C46.3942649,63.9585937 56.7844325,53.5684262 56.7844325,40.751505 C56.7844325,27.9345838 46.3942649,17.5444163 33.5773437,17.5444163 C20.7604226,17.5444163 10.370255,27.9345838 10.370255,40.751505 C10.370255,53.5684262 20.7604226,63.9585937 33.5773437,63.9585937 Z M33.5773437,67.5585938 C18.7721975,67.5585938 6.77025503,55.5566513 6.77025503,40.751505 C6.77025503,25.9463587 18.7721975,13.9444163 33.5773437,13.9444163 C48.38249,13.9444163 60.3844325,25.9463587 60.3844325,40.751505 C60.3844325,55.5566513 48.38249,67.5585938 33.5773437,67.5585938 Z" id="Mask" fill="#24B1EB"></path>
            <path d="M37.3162622,17.8440307 L56.4848181,37.0125866 C56.6819611,38.2297596 56.7844325,39.4786656 56.7844325,40.751505 C56.7844325,45.0116143 55.6365522,49.0036218 53.6332138,52.4351052 L21.8937436,20.695635 C25.325227,18.6922966 29.3172345,17.5444163 33.5773438,17.5444163 C34.8501832,17.5444163 36.0990892,17.6468877 37.3162622,17.8440308 Z M10.5418245,37.915331 L36.4135178,63.7870243 C35.4839762,63.9002881 34.537469,63.9585937 33.5773438,63.9585937 C20.7604226,63.9585937 10.370255,53.5684262 10.370255,40.751505 C10.370255,39.7913798 10.4285607,38.8448726 10.5418245,37.915331 Z" id="Combined-Shape" fill="#99DDF7"></path>
            <rect id="Rectangle-28" fill="#71D0F4" x="76.6594438" y="8.7" width="7.79464039" height="2"></rect>
            <rect id="Rectangle-28" fill="#71D0F4" transform="translate(82.362471, 12.794244) rotate(-315.000000) translate(-82.362471, -12.794244) " x="80.1297132" y="11.7942443" width="4.46551649" height="2"></rect>
            <rect id="Rectangle-28" fill="#71D0F4" transform="translate(78.751057, 12.794244) scale(-1, 1) rotate(-315.000000) translate(-78.751057, -12.794244) " x="76.5182983" y="11.7942443" width="4.46551649" height="2"></rect>
            <rect id="Rectangle-28" fill="#71D0F4" transform="translate(82.362471, 70.794244) scale(1, -1) rotate(-315.000000) translate(-82.362471, -70.794244) " x="80.1297132" y="69.7942443" width="4.46551649" height="2"></rect>
            <rect id="Rectangle-28" fill="#71D0F4" transform="translate(78.751057, 70.794244) scale(-1, -1) rotate(-315.000000) translate(-78.751057, -70.794244) " x="76.5182983" y="69.7942443" width="4.46551649" height="2"></rect>
            <rect id="Rectangle-28" fill="#71D0F4" x="68.7580302" y="8.7" width="4.46551649" height="2"></rect>
            <rect id="Rectangle-28" fill="#71D0F4" x="68.7580302" y="73.3" width="4.46551649" height="2"></rect>
            <rect id="Rectangle-28" fill="#71D0F4" x="60.9633898" y="8.7" width="4.46551649" height="2"></rect>
            <rect id="Rectangle-28" fill="#71D0F4" x="60.9633898" y="73.3" width="4.46551649" height="2"></rect>
            <rect id="Rectangle-28" fill="#71D0F4" x="53.5344835" y="8.7" width="4.46551649" height="2"></rect>
            <rect id="Rectangle-28" fill="#71D0F4" x="53.5344835" y="73.3" width="4.46551649" height="2"></rect>
            <rect id="Rectangle-28" fill="#71D0F4" transform="translate(80.556764, 42.000000) rotate(-270.000000) translate(-80.556764, -42.000000) " x="48.756764" y="41" width="63.6" height="2"></rect>
            <rect id="Rectangle-28" fill="#71D0F4" x="76.6594438" y="73.3" width="7.79464039" height="2"></rect>
        </g>
    </g>
</svg>