<?xml version="1.0" encoding="UTF-8"?>
<svg width="126px" height="86px" viewBox="0 0 126 86" version="1.1" xmlns="http://www.w3.org/2000/svg" xmlns:xlink="http://www.w3.org/1999/xlink">
    <!-- Generator: Sketch 50.2 (55047) - http://www.bohemiancoding.com/sketch -->
    <title>square-window</title>
    <desc>Created with Sketch.</desc>
    <defs></defs>
    <g id="Symbols" stroke="none" stroke-width="1" fill="none" fill-rule="evenodd">
        <g id="imgs-/-square-window">
            <g id="IMG" transform="translate(0.000000, 8.000000)">
                <path d="M104.199219,43.8828125 C104.199219,40.6015461 104.597652,37.988291 105.394531,36.0429688 C106.19141,34.0976465 107.65038,32.1816501 109.771484,30.2949219 C111.892589,28.4081937 113.304684,26.8730528 114.007812,25.6894531 C114.710941,24.5058535 115.0625,23.2578191 115.0625,21.9453125 C115.0625,17.9843552 113.234393,16.0039062 109.578125,16.0039062 C107.843741,16.0039062 106.455083,16.537104 105.412109,17.6035156 C104.369135,18.6699272 103.824219,20.1406156 103.777344,22.015625 L93.5820312,22.015625 C93.6289065,17.5390401 95.0761576,14.0351689 97.9238281,11.5039062 C100.771499,8.97264359 104.656225,7.70703125 109.578125,7.70703125 C114.5469,7.70703125 118.40233,8.90819111 121.144531,11.3105469 C123.886732,13.7129026 125.257812,17.1054468 125.257812,21.4882812 C125.257812,23.4804787 124.812504,25.3613193 123.921875,27.1308594 C123.031246,28.9003995 121.472667,30.8632705 119.246094,33.0195312 L116.398438,35.7265625 C114.617179,37.4375086 113.597658,39.4413948 113.339844,41.7382812 L113.199219,43.8828125 L104.199219,43.8828125 Z M103.179688,54.6757812 C103.179688,53.1054609 103.712885,51.810552 104.779297,50.7910156 C105.845708,49.7714793 107.210929,49.2617188 108.875,49.2617188 C110.539071,49.2617188 111.904292,49.7714793 112.970703,50.7910156 C114.037115,51.810552 114.570312,53.1054609 114.570312,54.6757812 C114.570312,56.222664 114.048833,57.499995 113.005859,58.5078125 C111.962885,59.51563 110.585946,60.0195312 108.875,60.0195312 C107.164054,60.0195312 105.787115,59.51563 104.744141,58.5078125 C103.701167,57.499995 103.179688,56.222664 103.179688,54.6757812 Z" id="?" fill="#EAEAEA"></path>
                <g id="size" transform="translate(70.000000, 0.000000)" fill="#71D0F4">
                    <rect id="Rectangle-28" x="8.65944381" y="0.7" width="7.79464039" height="2"></rect>
                    <rect id="Rectangle-28" transform="translate(14.362471, 4.794244) rotate(-315.000000) translate(-14.362471, -4.794244) " x="12.1297132" y="3.79424427" width="4.46551649" height="2"></rect>
                    <rect id="Rectangle-28" transform="translate(10.751057, 4.794244) scale(-1, 1) rotate(-315.000000) translate(-10.751057, -4.794244) " x="8.5182983" y="3.79424427" width="4.46551649" height="2"></rect>
                    <rect id="Rectangle-28" transform="translate(14.362471, 62.794244) scale(1, -1) rotate(-315.000000) translate(-14.362471, -62.794244) " x="12.1297132" y="61.7942443" width="4.46551649" height="2"></rect>
                    <rect id="Rectangle-28" transform="translate(10.751057, 62.794244) scale(-1, -1) rotate(-315.000000) translate(-10.751057, -62.794244) " x="8.5182983" y="61.7942443" width="4.46551649" height="2"></rect>
                    <rect id="Rectangle-28" x="0.758030156" y="0.7" width="4.46551649" height="2"></rect>
                    <rect id="Rectangle-28" x="0.758030156" y="65.3" width="4.46551649" height="2"></rect>
                    <rect id="Rectangle-28" transform="translate(12.556764, 34.000000) rotate(-270.000000) translate(-12.556764, -34.000000) " x="-19.243236" y="33" width="63.6" height="2"></rect>
                    <rect id="Rectangle-28" x="8.65944381" y="65.3" width="7.79464039" height="2"></rect>
                </g>
                <rect id="Rectangle-24" fill="#FFFFFF" x="2.13671875" y="1.54489512" width="64" height="64" rx="2"></rect>
                <path d="M4.13671875,3.04489512 C3.86057638,3.04489512 3.63671875,3.26875275 3.63671875,3.54489512 L3.63671875,63.5448951 C3.63671875,63.8210375 3.86057638,64.0448951 4.13671875,64.0448951 L64.1367188,64.0448951 C64.4128611,64.0448951 64.6367188,63.8210375 64.6367188,63.5448951 L64.6367188,3.54489512 C64.6367188,3.26875275 64.4128611,3.04489512 64.1367188,3.04489512 L4.13671875,3.04489512 Z M4.13671875,0.0448951248 L64.1367188,0.0448951248 C66.0697154,0.0448951248 67.6367188,1.6118985 67.6367188,3.54489512 L67.6367188,63.5448951 C67.6367188,65.4778917 66.0697154,67.0448951 64.1367188,67.0448951 L4.13671875,67.0448951 C2.20372213,67.0448951 0.63671875,65.4778917 0.63671875,63.5448951 L0.63671875,3.54489512 C0.63671875,1.6118985 2.20372213,0.0448951248 4.13671875,0.0448951248 Z" id="Rectangle-24" fill="#24B1EB" fill-rule="nonzero"></path>
                <rect id="Rectangle" fill="#99DDF7" x="9.13671875" y="10" width="21" height="49" rx="1"></rect>
                <path d="M31.5548412,38.5075819 L7.6734375,14.6261783 L7.6734375,8.54489512 C7.6734375,7.66123953 8.3897819,6.94489512 9.2734375,6.94489512 L29.9548412,6.94489512 C30.8384968,6.94489512 31.5548412,7.66123953 31.5548412,8.54489512 L31.5548412,38.5075819 Z M23.1124382,59.7636638 L9.2734375,59.7636638 C8.3897819,59.7636638 7.6734375,59.0473194 7.6734375,58.1636638 L7.6734375,44.3246631 L23.1124382,59.7636638 Z" id="Combined-Shape" fill="#71D0F4"></path>
                <path d="M10.6734375,9.94489512 L10.6734375,56.7636638 L28.5548412,56.7636638 L28.5548412,9.94489512 L10.6734375,9.94489512 Z M9.2734375,6.94489512 L29.9548412,6.94489512 C30.8384968,6.94489512 31.5548412,7.66123953 31.5548412,8.54489512 L31.5548412,58.1636638 C31.5548412,59.0473194 30.8384968,59.7636638 29.9548412,59.7636638 L9.2734375,59.7636638 C8.3897819,59.7636638 7.6734375,59.0473194 7.6734375,58.1636638 L7.6734375,8.54489512 C7.6734375,7.66123953 8.3897819,6.94489512 9.2734375,6.94489512 Z" id="Mask" fill="#24B1EB" fill-rule="nonzero"></path>
                <rect id="Mask" fill="#99DDF7" x="35.6734375" y="6.94489512" width="23.8814037" height="52.8187686" rx="1.6"></rect>
                <path d="M53.8439739,59.7636638 L35.6734375,41.5931274 L35.6734375,13.9300563 L59.5548412,37.8114599 L59.5548412,58.1636638 C59.5548412,59.0473194 58.8384968,59.7636638 57.9548412,59.7636638 L53.8439739,59.7636638 Z M58.4722778,7.03041179 L59.4693245,8.02745845 C59.3096637,7.56003539 58.9397009,7.19007261 58.4722814,7.03041533 Z" id="Combined-Shape" fill="#71D0F4"></path>
                <path d="M38.6734375,9.94489512 L38.6734375,56.7636638 L56.5548412,56.7636638 L56.5548412,9.94489512 L38.6734375,9.94489512 Z M37.2734375,6.94489512 L57.9548412,6.94489512 C58.8384968,6.94489512 59.5548412,7.66123953 59.5548412,8.54489512 L59.5548412,58.1636638 C59.5548412,59.0473194 58.8384968,59.7636638 57.9548412,59.7636638 L37.2734375,59.7636638 C36.3897819,59.7636638 35.6734375,59.0473194 35.6734375,58.1636638 L35.6734375,8.54489512 C35.6734375,7.66123953 36.3897819,6.94489512 37.2734375,6.94489512 Z" id="Mask" fill="#24B1EB" fill-rule="nonzero"></path>
            </g>
        </g>
    </g>
</svg>